# xmcd
#
# Track frame offsets:
# 150
# 15772
# 35127
# 47915
# 69000
# 84927
# 108005
# 123042
# 147405
# 158667
# 170937
#
# Disc length: 2598 seconds
#
#
# Revision: 0
# Processed by: cddbd v1.5.1PL0 Copyright (c) Steve Scherf et al.
# Submitted via: FreeRIP 2.12 
#
DISCID=800a240b
DTITLE=Tarbox ramblers - A fix back east
DYEAR=2004
DGENRE=R&B
TTITLE0=Already gone
TTITLE1=Were you there?
TTITLE2=Country blues
TTITLE3=A fix back east
TTITLE4=No night there
TTITLE5=Honey babe
TTITLE6=Cloth of gold
TTITLE7=The shining sun
TTITLE8=From the algiers station
TTITLE9=Last month of the year
TTITLE10=Ashes to ashes
EXTD=
EXTT0=
EXTT1=
EXTT2=
EXTT3=
EXTT4=
EXTT5=
EXTT6=
EXTT7=
EXTT8=
EXTT9=
EXTT10=
PLAYORDER=
